<svg xmlns="http://www.w3.org/2000/svg" xmlns:xlink="http://www.w3.org/1999/xlink" width="128" zoomAndPan="magnify" viewBox="0 0 96 95.999999" height="128" preserveAspectRatio="xMidYMid meet" version="1.0"><defs><clipPath id="257ef2fd81"><path d="M 1.964844 17 L 94 17 L 94 93.113281 L 1.964844 93.113281 Z M 1.964844 17 " clip-rule="nonzero"/></clipPath><clipPath id="4206c6479a"><path d="M 9 2.863281 L 87 2.863281 L 87 66 L 9 66 Z M 9 2.863281 " clip-rule="nonzero"/></clipPath><clipPath id="f9133cb645"><path d="M 37 16.9375 L 71 16.9375 L 71 74 L 37 74 Z M 37 16.9375 " clip-rule="nonzero"/></clipPath><clipPath id="abc23b2d50"><path d="M 48 16.9375 L 71 16.9375 L 71 56 L 48 56 Z M 48 16.9375 " clip-rule="nonzero"/></clipPath></defs><g clip-path="url(#257ef2fd81)"><path fill="#0d62ad" d="M 90.3125 40.949219 C 90.3125 64.332031 71.363281 83.285156 47.992188 83.285156 C 24.621094 83.285156 5.671875 64.332031 5.671875 40.949219 C 5.671875 32.324219 8.253906 24.296875 12.683594 17.605469 C 6.011719 25.589844 1.992188 35.875 1.992188 47.101562 C 1.992188 72.515625 22.585938 93.117188 47.992188 93.117188 C 73.398438 93.117188 93.992188 72.515625 93.992188 47.101562 C 93.992188 35.875 89.972656 25.589844 83.300781 17.605469 C 87.730469 24.296875 90.3125 32.320312 90.3125 40.949219 Z M 90.3125 40.949219 " fill-opacity="1" fill-rule="nonzero"/></g><g clip-path="url(#4206c6479a)"><path fill="#1cb3e4" d="M 12.628906 46.460938 C 12.628906 26.925781 28.460938 11.085938 47.992188 11.085938 C 67.523438 11.085938 83.355469 26.925781 83.355469 46.460938 C 83.355469 53.671875 81.199219 60.378906 77.496094 65.96875 C 83.074219 59.296875 86.429688 50.703125 86.429688 41.320312 C 86.429688 20.085938 69.222656 2.871094 47.992188 2.871094 C 26.765625 2.871094 9.554688 20.085938 9.554688 41.324219 C 9.554688 50.703125 12.910156 59.296875 18.488281 65.96875 C 14.785156 60.378906 12.628906 53.671875 12.628906 46.460938 Z M 12.628906 46.460938 " fill-opacity="1" fill-rule="nonzero"/></g><path fill="#0d62ad" d="M 27.011719 44.871094 C 24.464844 49.359375 23.671875 54.210938 24.984375 59.492188 C 28.074219 71.914062 41.902344 83.121094 54.375 76.941406 C 61.257812 73.535156 63.980469 65.183594 59.25 58.71875 C 56.65625 55.171875 52.511719 52.191406 47.972656 49.351562 C 42.136719 45.804688 33.636719 40.140625 34.515625 32.335938 C 31.140625 35.996094 28.847656 40.207031 31.515625 44.898438 C 33.566406 48.5 37.414062 51.796875 42.28125 54.929688 C 44.363281 56.464844 46.390625 58.0625 47.859375 60.1875 C 52.003906 66.175781 47.25 70.226562 41.164062 69.539062 C 35.136719 68.855469 32.195312 65.917969 30.882812 61.792969 C 33.226562 63.6875 35.652344 65.441406 38.511719 66.1875 C 43.226562 67.417969 44.476562 64.503906 43.125 61.289062 C 42.40625 59.59375 41.085938 57.988281 39.488281 56.707031 C 34.519531 52.726562 31.453125 50.105469 27.011719 44.871094 " fill-opacity="1" fill-rule="evenodd"/><path fill="#034e8f" d="M 57.089844 75.175781 C 61.886719 71.160156 63.296875 64.25 59.25 58.71875 C 56.660156 55.171875 52.511719 52.191406 47.972656 49.351562 C 42.136719 45.804688 33.636719 40.140625 34.515625 32.335938 C 32.519531 38.070312 33.484375 41.960938 37.742188 46.050781 C 43.007812 51.101562 50.03125 54.785156 54.777344 60.230469 C 58.179688 64.148438 59.972656 68.847656 57.089844 75.175781 " fill-opacity="1" fill-rule="evenodd"/><path fill="#034e8f" d="M 43.628906 63.832031 C 43.675781 63.0625 43.503906 62.1875 43.121094 61.285156 C 42.40625 59.589844 41.085938 57.984375 39.484375 56.703125 C 34.515625 52.722656 31.453125 50.105469 27.011719 44.871094 C 31.441406 55.863281 40.15625 56.007812 43.628906 63.832031 " fill-opacity="1" fill-rule="evenodd"/><g clip-path="url(#f9133cb645)"><path fill="#0098da" d="M 48.054688 16.9375 C 42.382812 21.285156 35.347656 27.257812 38.664062 34.296875 C 41.40625 40.125 50.167969 45.542969 55.152344 49.574219 C 64.113281 56.816406 70.949219 62.609375 61.917969 73.960938 C 69.34375 66.933594 72.375 58.828125 65.230469 50.386719 C 63.253906 48.050781 60.902344 45.875 58.203125 43.835938 C 53.113281 39.984375 45.753906 35.710938 45.707031 28.511719 C 50.066406 35.210938 53.910156 36.9375 59.816406 41.226562 C 65.304688 45.207031 68.921875 49.808594 70.761719 55.003906 C 70.277344 49.054688 68 43.699219 64.371094 38.800781 C 61.714844 35.214844 58.347656 31.890625 55.179688 28.453125 C 51.613281 24.589844 49.660156 22.167969 48.054688 16.9375 " fill-opacity="1" fill-rule="evenodd"/></g><g clip-path="url(#abc23b2d50)"><path fill="#007fb5" d="M 69.785156 52.648438 C 70.152344 53.417969 70.476562 54.203125 70.761719 55.003906 C 70.277344 49.054688 68 43.699219 64.371094 38.800781 C 61.714844 35.214844 58.347656 31.890625 55.179688 28.453125 C 51.609375 24.589844 49.660156 22.171875 48.054688 16.941406 C 48.082031 20.703125 48.917969 23.996094 50.667969 27.308594 C 52.777344 31.292969 55.492188 33.300781 59.082031 36.652344 C 60.808594 38.265625 62.421875 39.984375 63.910156 41.832031 C 66.320312 44.8125 69.074219 48.910156 69.785156 52.648438 Z M 69.785156 52.648438 " fill-opacity="1" fill-rule="evenodd"/></g><path fill="#007fb5" d="M 39.03125 26.152344 C 37.691406 28.660156 37.289062 31.386719 38.660156 34.296875 C 41.40625 40.125 50.164062 45.542969 55.148438 49.574219 C 57.710938 51.640625 60.097656 53.59375 61.992188 55.589844 C 56.496094 47.992188 47.464844 43.660156 42.375 36.453125 C 40.207031 33.382812 38.898438 29.957031 39.03125 26.152344 " fill-opacity="1" fill-rule="evenodd"/></svg>